<svg version="1.1" viewBox="0.0 0.0 48.0 48.0" fill="none" stroke="none" stroke-linecap="square" stroke-miterlimit="10" xmlns:xlink="http://www.w3.org/1999/xlink" xmlns="http://www.w3.org/2000/svg"><clipPath id="p.0"><path d="m0 0l48.0 0l0 48.0l-48.0 0l0 -48.0z" clip-rule="nonzero"/></clipPath><g clip-path="url(#p.0)"><path fill="#000000" fill-opacity="0.0" d="m0 0l48.0 0l0 48.0l-48.0 0z" fill-rule="evenodd"/><path fill="#00e0ff" d="m0.010498688 23.994751l0 0c0 -13.254834 10.745166 -24.0 24.0 -24.0l0 0c6.365196 0 12.469688 2.528564 16.970562 7.0294375c4.5008736 4.5008726 7.029438 10.605367 7.029438 16.970562l0 0c0 13.254833 -10.745167 24.0 -24.0 24.0l0 0c-13.254833 0 -24.0 -10.745167 -24.0 -24.0z" fill-rule="evenodd"/><g filter="url(#shadowFilter-p.1)"><use xlink:href="#p.1" transform="matrix(1.0 0.0 0.0 1.0 0.798635433070866 0.6018149606299196)"/></g><defs><filter id="shadowFilter-p.1" filterUnits="userSpaceOnUse"><feGaussianBlur in="SourceAlpha" stdDeviation="2.0" result="blur"/><feComponentTransfer in="blur" color-interpolation-filters="sRGB"><feFuncR type="linear" slope="0" intercept="0.0"/><feFuncG type="linear" slope="0" intercept="0.0"/><feFuncB type="linear" slope="0" intercept="0.0"/><feFuncA type="linear" slope="0.5" intercept="0"/></feComponentTransfer></filter></defs><g id="p.1"><path fill="#ffffff" d="m12.010499 23.994751l0 0c0 -6.6274166 5.3725824 -12.0 11.999999 -12.0l0 0c3.182598 0 6.234846 1.2642822 8.485283 3.514718c2.2504349 2.2504377 3.514717 5.302684 3.514717 8.485282l0 0c0 6.6274166 -5.3725815 12.0 -12.0 12.0l0 0c-6.6274166 0 -11.999999 -5.3725834 -11.999999 -12.0z" fill-rule="evenodd"/><path stroke="#f3f3f3" stroke-width="1.0" stroke-linejoin="round" stroke-linecap="butt" d="m12.010499 23.994751l0 0c0 -6.6274166 5.3725824 -12.0 11.999999 -12.0l0 0c3.182598 0 6.234846 1.2642822 8.485283 3.514718c2.2504349 2.2504377 3.514717 5.302684 3.514717 8.485282l0 0c0 6.6274166 -5.3725815 12.0 -12.0 12.0l0 0c-6.6274166 0 -11.999999 -5.3725834 -11.999999 -12.0z" fill-rule="evenodd"/></g></g></svg>